# xmcd
#
# Track frame offsets: 
#        150
#        14910
#        32739
#        47960
#        63393
#        81667
#        94490
#        112672
#        129654
#        149324
#        164124
#        182060
#        197186
#        215722
#
# Disc length: 3170 seconds
#
# Revision: 0
# Processed by: cddbd v1.5.2PL0 Copyright (c) Steve Scherf et al.
# Submitted via: ExactAudioCopy v1.0b3
#
DISCID=df0c600e
DTITLE=Radio kalahari orkes - Grootste Treffers
DYEAR=2013
DGENRE=Blues
TTITLE0=Kaptein
TTITLE1=Jolie Marie
TTITLE2=Duiwel van Wyk
TTITLE3=Renaissance
TTITLE4=Transboer
TTITLE5=Skeeloog Daisy
TTITLE6=Reen
TTITLE7=Kwagga
TTITLE8=Elvis
TTITLE9=Die Held
TTITLE10=Heuningland
TTITLE11=Blaas jou Vuvuzela
TTITLE12=Blink Ster
TTITLE13=Staan By My
EXTD=
EXTT0=
EXTT1=
EXTT2=
EXTT3=
EXTT4=
EXTT5=
EXTT6=
EXTT7=
EXTT8=
EXTT9=
EXTT10=
EXTT11=
EXTT12=
EXTT13=
PLAYORDER=
